Genre:Crime | Drama | Thriller 
Language:English.Swedish.Serbian.Spanish
IMDb:http://www.imdb.com/title/tt1291652/ 
Source:720p BluRay DTS x264 
Subtitles:Romana/English

General
Complete name :Snabba.Cash.2010.BRRip.H264.Feel-Free.mp4
Format : MPEG-4
Format profile : Base Media
Codec ID : mp42
File size : 1.55 GiB
Duration : 2h 4mn
Overall bit rate : 1 781 Kbps
Video #1
Codec ID : avc1
Codec ID/Info : Advanced Video Coding
Duration : 2h 4mn
Bit rate mode : Variable
Bit rate : 1 299 Kbps
Width : 720 pixels
Height : 304 pixels
Display aspect ratio : 2.35:1
Frame rate mode : Constant
Frame rate : 23.976 fps
Resolution : 24 bits
Colorimetry : 4:2:0
Scan type : Progressive
Bits/(Pixel*Frame) : 0.248
Stream size : 1.13 GiB (73%)
Audio #2
ID : 2
Format : AAC
Format/Info : Advanced Audio Codec
Format version : Version 4
Format profile : LC
Format settings, SBR : No
Codec ID : 40
Duration : 2h 4mn
Bit rate mode : Constant
Bit rate : 477 Kbps
Nominal bit rate : 480 Kbps
Channel(s) : 6 channels
Channel positions : Front: L C R, Rear: L R, LFE
Sampling rate : 48.0 KHz
Resolution : 16 bits
Stream size : 424 MiB (27%)

Plot:
A three-tiered story centered around drugs and organized crime, and focused on a young man who becomes a runner for a coke dealer.






================================== 
http://thepiratebay.org/user/hiest
==================================